<svg width="1286" height="401" viewBox="0 0 1286 401" fill="none" xmlns="http://www.w3.org/2000/svg">
<path d="M370.118 202.641C370.118 311.821 287.306 400.328 185.152 400.328C82.999 400.328 0.187256 311.821 0.187256 202.641C0.187256 93.4623 82.999 4.95508 185.152 4.95508C287.306 4.95508 370.118 93.4623 370.118 202.641Z" fill="#1DC9D3"/>
<path d="M370.118 202.641C370.118 311.821 287.306 400.328 185.152 400.328C82.999 400.328 0.187256 311.821 0.187256 202.641C0.187256 93.4623 82.999 4.95508 185.152 4.95508C287.306 4.95508 370.118 93.4623 370.118 202.641Z" fill="#1DC9D3"/>
<path d="M370.118 202.641C370.118 311.821 287.306 400.328 185.152 400.328C82.999 400.328 0.187256 311.821 0.187256 202.641C0.187256 93.4623 82.999 4.95508 185.152 4.95508C287.306 4.95508 370.118 93.4623 370.118 202.641Z" fill="#1DC9D3"/>
<path d="M370.118 202.641C370.118 311.821 287.306 400.328 185.152 400.328C82.999 400.328 0.187256 311.821 0.187256 202.641C0.187256 93.4623 82.999 4.95508 185.152 4.95508C287.306 4.95508 370.118 93.4623 370.118 202.641Z" fill="#1DC9D3"/>
<path d="M370.118 202.641C370.118 311.821 287.306 400.328 185.152 400.328C82.999 400.328 0.187256 311.821 0.187256 202.641C0.187256 93.4623 82.999 4.95508 185.152 4.95508C287.306 4.95508 370.118 93.4623 370.118 202.641Z" fill="#1DC9D3"/>
<path d="M370.118 202.641C370.118 311.821 287.306 400.328 185.152 400.328C82.999 400.328 0.187256 311.821 0.187256 202.641C0.187256 93.4623 82.999 4.95508 185.152 4.95508C287.306 4.95508 370.118 93.4623 370.118 202.641Z" fill="#1DC9D3"/>
<path d="M284.749 119.635C277.892 124.438 264.134 130.985 256.047 132.873C255.809 132.946 255.616 133.039 255.387 133.112C248.24 124.791 238.447 119.635 227.608 119.635C205.763 119.635 188.049 140.541 188.049 166.323C188.049 167.682 187.952 170.183 188.049 171.511C158.573 171.511 136.138 153.292 120.051 130.01C118.302 135.198 117.537 143.394 117.537 151.092C117.537 165.628 127.163 179.904 142.151 188.754C139.391 189.594 136.349 190.196 133.185 190.196C128.077 190.196 122.671 188.609 117.721 183.795C117.721 183.971 117.721 184.137 117.721 184.324C117.721 204.638 135.989 218.469 152.235 222.318C148.938 224.611 142.292 224.839 139.048 224.839C136.763 224.839 128.675 223.604 126.512 223.127C131.031 239.779 147.329 249.137 162.863 249.469C150.714 260.716 142.283 264.887 117.405 264.887H108.93C124.649 276.777 144.666 285.648 164.726 285.648C230.043 285.648 267.167 226.893 267.167 171.511C267.167 170.618 267.15 168.751 267.123 166.873C267.123 166.686 267.167 166.51 267.167 166.323C267.167 166.043 267.097 165.773 267.097 165.493C267.07 164.082 267.044 162.764 267.018 162.08C273.963 156.166 279.984 148.789 284.749 140.385C278.376 143.726 271.536 145.967 264.354 146.984C271.686 141.796 282.103 129.429 284.749 119.635Z" fill="white"/>
<path d="M820.335 198.274C820.335 307.453 738.206 395.961 636.894 395.961C535.583 395.961 453.453 307.453 453.453 198.274C453.453 89.0951 535.583 0.587891 636.894 0.587891C738.206 0.587891 820.335 89.0951 820.335 198.274Z" fill="#1DC9D3"/>
<path d="M820.335 198.274C820.335 307.453 738.206 395.961 636.894 395.961C535.583 395.961 453.453 307.453 453.453 198.274C453.453 89.0951 535.583 0.587891 636.894 0.587891C738.206 0.587891 820.335 89.0951 820.335 198.274Z" fill="#1DC9D3"/>
<path d="M820.335 198.274C820.335 307.453 738.206 395.961 636.894 395.961C535.583 395.961 453.453 307.453 453.453 198.274C453.453 89.0951 535.583 0.587891 636.894 0.587891C738.206 0.587891 820.335 89.0951 820.335 198.274Z" fill="#1DC9D3"/>
<path d="M820.335 198.274C820.335 307.453 738.206 395.961 636.894 395.961C535.583 395.961 453.453 307.453 453.453 198.274C453.453 89.0951 535.583 0.587891 636.894 0.587891C738.206 0.587891 820.335 89.0951 820.335 198.274Z" fill="#1DC9D3"/>
<path d="M820.335 198.274C820.335 307.453 738.206 395.961 636.894 395.961C535.583 395.961 453.453 307.453 453.453 198.274C453.453 89.0951 535.583 0.587891 636.894 0.587891C738.206 0.587891 820.335 89.0951 820.335 198.274Z" fill="#1DC9D3"/>
<path d="M820.335 198.274C820.335 307.453 738.206 395.961 636.894 395.961C535.583 395.961 453.453 307.453 453.453 198.274C453.453 89.0951 535.583 0.587891 636.894 0.587891C738.206 0.587891 820.335 89.0951 820.335 198.274Z" fill="#1DC9D3"/>
<path d="M608.608 115.268C579.612 115.268 556.099 137.14 556.099 164.113V242.265C556.099 269.237 579.612 291.11 608.608 291.11H692.621C721.616 291.11 745.129 269.237 745.129 242.265V164.113C745.129 137.14 721.616 115.268 692.621 115.268H608.608ZM713.624 134.806C719.421 134.806 724.126 139.182 724.126 144.575C724.126 149.967 719.421 154.344 713.624 154.344C707.827 154.344 703.123 149.967 703.123 144.575C703.123 139.182 707.827 134.806 713.624 134.806ZM650.614 154.344C679.609 154.344 703.123 176.217 703.123 203.189C703.123 230.161 679.609 252.034 650.614 252.034C621.619 252.034 598.106 230.161 598.106 203.189C598.106 176.217 621.619 154.344 650.614 154.344ZM650.614 173.882C642.259 173.882 634.245 176.969 628.337 182.466C622.429 187.962 619.109 195.416 619.109 203.189C619.109 210.962 622.429 218.416 628.337 223.912C634.245 229.408 642.259 232.496 650.614 232.496C658.97 232.496 666.983 229.408 672.892 223.912C678.8 218.416 682.119 210.962 682.119 203.189C682.119 195.416 678.8 187.962 672.892 182.466C666.983 176.969 658.97 173.882 650.614 173.882Z" fill="white"/>
<path d="M1285.8 198.274C1285.8 307.453 1200.26 395.961 1094.73 395.961C989.213 395.961 903.671 307.453 903.671 198.274C903.671 89.0951 989.213 0.587891 1094.73 0.587891C1200.26 0.587891 1285.8 89.0951 1285.8 198.274Z" fill="#1DC9D3"/>
<path d="M1285.8 198.274C1285.8 307.453 1200.26 395.961 1094.73 395.961C989.213 395.961 903.671 307.453 903.671 198.274C903.671 89.0951 989.213 0.587891 1094.73 0.587891C1200.26 0.587891 1285.8 89.0951 1285.8 198.274Z" fill="#1DC9D3"/>
<path d="M1285.8 198.274C1285.8 307.453 1200.26 395.961 1094.73 395.961C989.213 395.961 903.671 307.453 903.671 198.274C903.671 89.0951 989.213 0.587891 1094.73 0.587891C1200.26 0.587891 1285.8 89.0951 1285.8 198.274Z" fill="#1DC9D3"/>
<path d="M1285.8 198.274C1285.8 307.453 1200.26 395.961 1094.73 395.961C989.213 395.961 903.671 307.453 903.671 198.274C903.671 89.0951 989.213 0.587891 1094.73 0.587891C1200.26 0.587891 1285.8 89.0951 1285.8 198.274Z" fill="#1DC9D3"/>
<path d="M1285.8 198.274C1285.8 307.453 1200.26 395.961 1094.73 395.961C989.213 395.961 903.671 307.453 903.671 198.274C903.671 89.0951 989.213 0.587891 1094.73 0.587891C1200.26 0.587891 1285.8 89.0951 1285.8 198.274Z" fill="#1DC9D3"/>
<path d="M1285.8 198.274C1285.8 307.453 1200.26 395.961 1094.73 395.961C989.213 395.961 903.671 307.453 903.671 198.274C903.671 89.0951 989.213 0.587891 1094.73 0.587891C1200.26 0.587891 1285.8 89.0951 1285.8 198.274Z" fill="#1DC9D3"/>
<path d="M1191.28 193.579C1191.28 144.925 1150.76 105.438 1100.83 105.438C1050.9 105.438 1010.38 144.925 1010.38 193.579C1010.38 236.24 1041.5 271.761 1082.74 279.958V220.022H1064.65V193.579H1082.74V171.544C1082.74 154.532 1096.94 140.694 1114.4 140.694H1137.01V167.137H1118.92C1113.95 167.137 1109.88 171.103 1109.88 175.951V193.579H1137.01V220.022H1109.88V281.28C1155.55 276.873 1191.28 239.325 1191.28 193.579Z" fill="white"/>
</svg>
