<svg width="1367" height="339" viewBox="0 0 1367 339" fill="none" xmlns="http://www.w3.org/2000/svg">
<path d="M86.3022 31.3232V124.414H69.3022L28.8022 65.8232H28.1204V124.414H8.43857V31.3232H25.7113L65.8931 89.8686H66.7113V31.3232H86.3022ZM134.018 125.778C126.836 125.778 120.654 124.323 115.473 121.414C110.321 118.475 106.351 114.323 103.564 108.96C100.776 103.566 99.3817 97.1868 99.3817 89.8232C99.3817 82.6413 100.776 76.3383 103.564 70.9141C106.351 65.4898 110.276 61.2625 115.336 58.2322C120.427 55.2019 126.397 53.6868 133.245 53.6868C137.851 53.6868 142.139 54.4292 146.109 55.9141C150.109 57.3686 153.594 59.5656 156.564 62.505C159.564 65.4444 161.897 69.1413 163.564 73.5959C165.23 78.0201 166.064 83.2019 166.064 89.1413V94.4595H107.109V82.4595H147.836C147.836 79.6716 147.23 77.2019 146.018 75.0504C144.806 72.8989 143.124 71.2171 140.973 70.005C138.851 68.7625 136.382 68.1413 133.564 68.1413C130.624 68.1413 128.018 68.8232 125.745 70.1868C123.503 71.5201 121.745 73.3232 120.473 75.5959C119.2 77.8383 118.548 80.3383 118.518 83.0959V94.505C118.518 97.9595 119.154 100.944 120.427 103.46C121.73 105.975 123.564 107.914 125.927 109.278C128.291 110.641 131.094 111.323 134.336 111.323C136.488 111.323 138.458 111.02 140.245 110.414C142.033 109.808 143.564 108.899 144.836 107.687C146.109 106.475 147.079 104.99 147.745 103.232L165.654 104.414C164.745 108.717 162.882 112.475 160.064 115.687C157.276 118.869 153.67 121.353 149.245 123.141C144.851 124.899 139.776 125.778 134.018 125.778ZM210.518 125.778C203.336 125.778 197.154 124.323 191.973 121.414C186.821 118.475 182.851 114.323 180.064 108.96C177.276 103.566 175.882 97.1868 175.882 89.8232C175.882 82.6413 177.276 76.3383 180.064 70.9141C182.851 65.4898 186.776 61.2625 191.836 58.2322C196.927 55.2019 202.897 53.6868 209.745 53.6868C214.351 53.6868 218.639 54.4292 222.609 55.9141C226.609 57.3686 230.094 59.5656 233.064 62.505C236.064 65.4444 238.397 69.1413 240.064 73.5959C241.73 78.0201 242.564 83.2019 242.564 89.1413V94.4595H183.609V82.4595H224.336C224.336 79.6716 223.73 77.2019 222.518 75.0504C221.306 72.8989 219.624 71.2171 217.473 70.005C215.351 68.7625 212.882 68.1413 210.064 68.1413C207.124 68.1413 204.518 68.8232 202.245 70.1868C200.003 71.5201 198.245 73.3232 196.973 75.5959C195.7 77.8383 195.048 80.3383 195.018 83.0959V94.505C195.018 97.9595 195.654 100.944 196.927 103.46C198.23 105.975 200.064 107.914 202.427 109.278C204.791 110.641 207.594 111.323 210.836 111.323C212.988 111.323 214.958 111.02 216.745 110.414C218.533 109.808 220.064 108.899 221.336 107.687C222.609 106.475 223.579 104.99 224.245 103.232L242.154 104.414C241.245 108.717 239.382 112.475 236.564 115.687C233.776 118.869 230.17 121.353 225.745 123.141C221.351 124.899 216.276 125.778 210.518 125.778ZM255.2 124.414V54.5959H273.654V66.9141H274.473C275.927 62.8232 278.351 59.5959 281.745 57.2322C285.139 54.8686 289.2 53.6868 293.927 53.6868C298.715 53.6868 302.791 54.8838 306.154 57.2777C309.518 59.6413 311.761 62.8535 312.882 66.9141H313.609C315.033 62.9141 317.609 59.7171 321.336 57.3232C325.094 54.8989 329.533 53.6868 334.654 53.6868C341.17 53.6868 346.458 55.7625 350.518 59.9141C354.609 64.0353 356.654 69.8838 356.654 77.4595V124.414H337.336V81.2777C337.336 77.3989 336.306 74.4898 334.245 72.5504C332.185 70.611 329.609 69.6413 326.518 69.6413C323.003 69.6413 320.261 70.7625 318.291 73.005C316.321 75.2171 315.336 78.1413 315.336 81.7777V124.414H296.564V80.8686C296.564 77.4444 295.579 74.7171 293.609 72.6868C291.67 70.6565 289.109 69.6413 285.927 69.6413C283.776 69.6413 281.836 70.1868 280.109 71.2777C278.412 72.3383 277.064 73.8383 276.064 75.7777C275.064 77.6868 274.564 79.9292 274.564 82.505V124.414H255.2ZM391.859 125.732C387.404 125.732 383.435 124.96 379.95 123.414C376.465 121.838 373.708 119.52 371.677 116.46C369.677 113.369 368.677 109.52 368.677 104.914C368.677 101.035 369.389 97.7777 370.814 95.1413C372.238 92.505 374.177 90.3838 376.632 88.7777C379.086 87.1716 381.874 85.9595 384.995 85.1413C388.147 84.3232 391.45 83.7474 394.904 83.4141C398.965 82.9898 402.238 82.5959 404.723 82.2322C407.208 81.8383 409.011 81.2625 410.132 80.505C411.253 79.7474 411.814 78.6262 411.814 77.1413V76.8686C411.814 73.9898 410.904 71.7625 409.086 70.1868C407.298 68.611 404.753 67.8232 401.45 67.8232C397.965 67.8232 395.192 68.5959 393.132 70.1413C391.071 71.6565 389.708 73.5656 389.041 75.8686L371.132 74.4141C372.041 70.1716 373.829 66.505 376.495 63.4141C379.162 60.2928 382.601 57.8989 386.814 56.2322C391.056 54.5353 395.965 53.6868 401.541 53.6868C405.42 53.6868 409.132 54.1413 412.677 55.0504C416.253 55.9595 419.42 57.3686 422.177 59.2777C424.965 61.1868 427.162 63.6413 428.768 66.6413C430.374 69.611 431.177 73.1716 431.177 77.3232V124.414H412.814V114.732H412.268C411.147 116.914 409.647 118.838 407.768 120.505C405.889 122.141 403.632 123.429 400.995 124.369C398.359 125.278 395.314 125.732 391.859 125.732ZM397.404 112.369C400.253 112.369 402.768 111.808 404.95 110.687C407.132 109.535 408.844 107.99 410.086 106.05C411.329 104.111 411.95 101.914 411.95 99.4595V92.0504C411.344 92.4444 410.511 92.808 409.45 93.1413C408.42 93.4444 407.253 93.7322 405.95 94.005C404.647 94.2474 403.344 94.4747 402.041 94.6868C400.738 94.8686 399.556 95.0353 398.495 95.1868C396.223 95.5201 394.238 96.0504 392.541 96.7777C390.844 97.505 389.526 98.4898 388.586 99.7322C387.647 100.944 387.177 102.46 387.177 104.278C387.177 106.914 388.132 108.929 390.041 110.323C391.98 111.687 394.435 112.369 397.404 112.369ZM492.234 124.414H471.143L503.279 31.3232H528.643L560.734 124.414H539.643L516.325 52.5959H515.598L492.234 124.414ZM490.916 87.8232H540.734V103.187H490.916V87.8232ZM571.575 150.596V54.5959H590.666V66.3232H591.529C592.378 64.4444 593.605 62.5353 595.211 60.5959C596.848 58.6262 598.969 56.9898 601.575 55.6868C604.211 54.3535 607.484 53.6868 611.393 53.6868C616.484 53.6868 621.181 55.0201 625.484 57.6868C629.787 60.3232 633.226 64.308 635.802 69.6413C638.378 74.9444 639.666 81.5959 639.666 89.5959C639.666 97.3838 638.408 103.96 635.893 109.323C633.408 114.656 630.014 118.702 625.711 121.46C621.439 124.187 616.651 125.55 611.348 125.55C607.59 125.55 604.393 124.929 601.757 123.687C599.151 122.444 597.014 120.884 595.348 119.005C593.681 117.096 592.408 115.172 591.529 113.232H590.939V150.596H571.575ZM590.529 89.505C590.529 93.6565 591.105 97.2777 592.257 100.369C593.408 103.46 595.075 105.869 597.257 107.596C599.439 109.293 602.09 110.141 605.211 110.141C608.363 110.141 611.029 109.278 613.211 107.55C615.393 105.793 617.045 103.369 618.166 100.278C619.317 97.1565 619.893 93.5656 619.893 89.505C619.893 85.4747 619.333 81.9292 618.211 78.8686C617.09 75.808 615.439 73.4141 613.257 71.6868C611.075 69.9595 608.393 69.0959 605.211 69.0959C602.06 69.0959 599.393 69.9292 597.211 71.5959C595.06 73.2625 593.408 75.6262 592.257 78.6868C591.105 81.7474 590.529 85.3535 590.529 89.505ZM672.484 125.732C668.029 125.732 664.06 124.96 660.575 123.414C657.09 121.838 654.333 119.52 652.302 116.46C650.302 113.369 649.302 109.52 649.302 104.914C649.302 101.035 650.014 97.7777 651.439 95.1413C652.863 92.505 654.802 90.3838 657.257 88.7777C659.711 87.1716 662.499 85.9595 665.62 85.1413C668.772 84.3232 672.075 83.7474 675.529 83.4141C679.59 82.9898 682.863 82.5959 685.348 82.2322C687.833 81.8383 689.636 81.2625 690.757 80.505C691.878 79.7474 692.439 78.6262 692.439 77.1413V76.8686C692.439 73.9898 691.529 71.7625 689.711 70.1868C687.923 68.611 685.378 67.8232 682.075 67.8232C678.59 67.8232 675.817 68.5959 673.757 70.1413C671.696 71.6565 670.333 73.5656 669.666 75.8686L651.757 74.4141C652.666 70.1716 654.454 66.505 657.12 63.4141C659.787 60.2928 663.226 57.8989 667.439 56.2322C671.681 54.5353 676.59 53.6868 682.166 53.6868C686.045 53.6868 689.757 54.1413 693.302 55.0504C696.878 55.9595 700.045 57.3686 702.802 59.2777C705.59 61.1868 707.787 63.6413 709.393 66.6413C710.999 69.611 711.802 73.1716 711.802 77.3232V124.414H693.439V114.732H692.893C691.772 116.914 690.272 118.838 688.393 120.505C686.514 122.141 684.257 123.429 681.62 124.369C678.984 125.278 675.939 125.732 672.484 125.732ZM678.029 112.369C680.878 112.369 683.393 111.808 685.575 110.687C687.757 109.535 689.469 107.99 690.711 106.05C691.954 104.111 692.575 101.914 692.575 99.4595V92.0504C691.969 92.4444 691.136 92.808 690.075 93.1413C689.045 93.4444 687.878 93.7322 686.575 94.005C685.272 94.2474 683.969 94.4747 682.666 94.6868C681.363 94.8686 680.181 95.0353 679.12 95.1868C676.848 95.5201 674.863 96.0504 673.166 96.7777C671.469 97.505 670.151 98.4898 669.211 99.7322C668.272 100.944 667.802 102.46 667.802 104.278C667.802 106.914 668.757 108.929 670.666 110.323C672.605 111.687 675.06 112.369 678.029 112.369ZM726.825 124.414V54.5959H745.598V66.7777H746.325C747.598 62.4444 749.734 59.1716 752.734 56.9595C755.734 54.7171 759.189 53.5959 763.098 53.5959C764.067 53.5959 765.113 53.6565 766.234 53.7777C767.355 53.8989 768.34 54.0656 769.189 54.2777V71.4595C768.279 71.1868 767.022 70.9444 765.416 70.7322C763.81 70.5201 762.34 70.4141 761.007 70.4141C758.158 70.4141 755.613 71.0353 753.37 72.2777C751.158 73.4898 749.401 75.1868 748.098 77.3686C746.825 79.5504 746.189 82.0656 746.189 84.9141V124.414H726.825ZM819.836 54.5959V69.1413H777.791V54.5959H819.836ZM787.336 37.8686H806.7V102.96C806.7 104.747 806.973 106.141 807.518 107.141C808.064 108.111 808.821 108.793 809.791 109.187C810.791 109.581 811.942 109.778 813.245 109.778C814.154 109.778 815.064 109.702 815.973 109.55C816.882 109.369 817.579 109.232 818.064 109.141L821.109 123.55C820.139 123.853 818.776 124.202 817.018 124.596C815.261 125.02 813.124 125.278 810.609 125.369C805.942 125.55 801.851 124.929 798.336 123.505C794.851 122.081 792.139 119.869 790.2 116.869C788.261 113.869 787.306 110.081 787.336 105.505V37.8686ZM832.45 124.414V54.5959H850.904V66.9141H851.723C853.177 62.8232 855.601 59.5959 858.995 57.2322C862.389 54.8686 866.45 53.6868 871.177 53.6868C875.965 53.6868 880.041 54.8838 883.404 57.2777C886.768 59.6413 889.011 62.8535 890.132 66.9141H890.859C892.283 62.9141 894.859 59.7171 898.586 57.3232C902.344 54.8989 906.783 53.6868 911.904 53.6868C918.42 53.6868 923.708 55.7625 927.768 59.9141C931.859 64.0353 933.904 69.8838 933.904 77.4595V124.414H914.586V81.2777C914.586 77.3989 913.556 74.4898 911.495 72.5504C909.435 70.611 906.859 69.6413 903.768 69.6413C900.253 69.6413 897.511 70.7625 895.541 73.005C893.571 75.2171 892.586 78.1413 892.586 81.7777V124.414H873.814V80.8686C873.814 77.4444 872.829 74.7171 870.859 72.6868C868.92 70.6565 866.359 69.6413 863.177 69.6413C861.026 69.6413 859.086 70.1868 857.359 71.2777C855.662 72.3383 854.314 73.8383 853.314 75.7777C852.314 77.6868 851.814 79.9292 851.814 82.505V124.414H832.45ZM981.018 125.778C973.836 125.778 967.654 124.323 962.473 121.414C957.321 118.475 953.351 114.323 950.564 108.96C947.776 103.566 946.382 97.1868 946.382 89.8232C946.382 82.6413 947.776 76.3383 950.564 70.9141C953.351 65.4898 957.276 61.2625 962.336 58.2322C967.427 55.2019 973.397 53.6868 980.245 53.6868C984.851 53.6868 989.139 54.4292 993.109 55.9141C997.109 57.3686 1000.59 59.5656 1003.56 62.505C1006.56 65.4444 1008.9 69.1413 1010.56 73.5959C1012.23 78.0201 1013.06 83.2019 1013.06 89.1413V94.4595H954.109V82.4595H994.836C994.836 79.6716 994.23 77.2019 993.018 75.0504C991.806 72.8989 990.124 71.2171 987.973 70.005C985.851 68.7625 983.382 68.1413 980.564 68.1413C977.624 68.1413 975.018 68.8232 972.745 70.1868C970.503 71.5201 968.745 73.3232 967.473 75.5959C966.2 77.8383 965.548 80.3383 965.518 83.0959V94.505C965.518 97.9595 966.154 100.944 967.427 103.46C968.73 105.975 970.564 107.914 972.927 109.278C975.291 110.641 978.094 111.323 981.336 111.323C983.488 111.323 985.458 111.02 987.245 110.414C989.033 109.808 990.564 108.899 991.836 107.687C993.109 106.475 994.079 104.99 994.745 103.232L1012.65 104.414C1011.75 108.717 1009.88 112.475 1007.06 115.687C1004.28 118.869 1000.67 121.353 996.245 123.141C991.851 124.899 986.776 125.778 981.018 125.778ZM1045.06 84.0504V124.414H1025.7V54.5959H1044.15V66.9141H1044.97C1046.52 62.8535 1049.11 59.6413 1052.75 57.2777C1056.38 54.8838 1060.79 53.6868 1065.97 53.6868C1070.82 53.6868 1075.05 54.7474 1078.65 56.8686C1082.26 58.9898 1085.06 62.0201 1087.06 65.9595C1089.06 69.8686 1090.06 74.5353 1090.06 79.9595V124.414H1070.7V83.4141C1070.73 79.1413 1069.64 75.808 1067.43 73.4141C1065.22 70.9898 1062.17 69.7777 1058.29 69.7777C1055.68 69.7777 1053.38 70.3383 1051.38 71.4595C1049.41 72.5807 1047.87 74.2171 1046.75 76.3686C1045.65 78.4898 1045.09 81.0504 1045.06 84.0504ZM1142.46 54.5959V69.1413H1100.42V54.5959H1142.46ZM1109.96 37.8686H1129.32V102.96C1129.32 104.747 1129.6 106.141 1130.14 107.141C1130.69 108.111 1131.45 108.793 1132.42 109.187C1133.42 109.581 1134.57 109.778 1135.87 109.778C1136.78 109.778 1137.69 109.702 1138.6 109.55C1139.51 109.369 1140.2 109.232 1140.69 109.141L1143.73 123.55C1142.76 123.853 1141.4 124.202 1139.64 124.596C1137.89 125.02 1135.75 125.278 1133.23 125.369C1128.57 125.55 1124.48 124.929 1120.96 123.505C1117.48 122.081 1114.76 119.869 1112.82 116.869C1110.89 113.869 1109.93 110.081 1109.96 105.505V37.8686Z" fill="white"/>
<ellipse cx="78.0944" cy="294.759" rx="60.4694" ry="44.2337" fill="#1DC9D3"/>
<line x1="239.177" y1="282.805" x2="862.164" y2="282.805" stroke="#1DC9D3" stroke-width="25"/>
</svg>
