<svg width="840" height="702" viewBox="0 0 840 702" fill="none" xmlns="http://www.w3.org/2000/svg">
<rect x="0.688721" width="838.4" height="702" fill="#1DC9D3"/>
<path d="M264.646 324.277C302.815 387.7 364.308 439.469 439.32 471.964L497.633 422.66C504.789 416.61 515.392 414.593 524.669 417.282C554.355 425.574 586.427 430.056 619.295 430.056C633.873 430.056 645.8 440.141 645.8 452.467V530.68C645.8 543.006 633.873 553.091 619.295 553.091C370.405 553.091 168.695 382.545 168.695 172.108C168.695 159.782 180.623 149.697 195.201 149.697H287.971C302.55 149.697 314.477 159.782 314.477 172.108C314.477 200.122 319.778 227.014 329.586 252.115C332.501 259.958 330.381 268.698 322.959 274.973L264.646 324.277Z" fill="white"/>
</svg>
