<svg width="1094" height="348" viewBox="0 0 1094 348" fill="none" xmlns="http://www.w3.org/2000/svg">
<ellipse cx="63.5671" cy="303.495" rx="60.4694" ry="44.2337" fill="#1DC9D3"/>
<line x1="224.65" y1="315.57" x2="560.026" y2="315.57" stroke="#1DC9D3" stroke-width="25"/>
<path d="M43.2761 92.0504H60.0034L68.4125 102.869L76.6852 112.505L92.2761 132.05H73.9125L63.1852 118.869L57.6852 111.05L43.2761 92.0504ZM93.6852 77.8686C93.6852 88.0201 91.761 96.6565 87.9125 103.778C84.0943 110.899 78.8822 116.338 72.2761 120.096C65.7003 123.823 58.3064 125.687 50.0943 125.687C41.8216 125.687 34.3973 123.808 27.8216 120.05C21.2458 116.293 16.0488 110.853 12.2306 103.732C8.41246 96.611 6.50337 87.9898 6.50337 77.8686C6.50337 67.7171 8.41246 59.0807 12.2306 51.9595C16.0488 44.8383 21.2458 39.4141 27.8216 35.6868C34.3973 31.9292 41.8216 30.0504 50.0943 30.0504C58.3064 30.0504 65.7003 31.9292 72.2761 35.6868C78.8822 39.4141 84.0943 44.8383 87.9125 51.9595C91.761 59.0807 93.6852 67.7171 93.6852 77.8686ZM73.7307 77.8686C73.7307 71.2928 72.7458 65.7474 70.7761 61.2322C68.8367 56.7171 66.0943 53.2929 62.5488 50.9595C59.0034 48.6262 54.8519 47.4595 50.0943 47.4595C45.3367 47.4595 41.1852 48.6262 37.6397 50.9595C34.0943 53.2929 31.3367 56.7171 29.367 61.2322C27.4276 65.7474 26.4579 71.2928 26.4579 77.8686C26.4579 84.4444 27.4276 89.9898 29.367 94.505C31.3367 99.0201 34.0943 102.444 37.6397 104.778C41.1852 107.111 45.3367 108.278 50.0943 108.278C54.8519 108.278 59.0034 107.111 62.5488 104.778C66.0943 102.444 68.8367 99.0201 70.7761 94.505C72.7458 89.9898 73.7307 84.4444 73.7307 77.8686ZM152.674 94.6868V54.5959H172.037V124.414H153.447V111.732H152.719C151.144 115.823 148.522 119.111 144.856 121.596C141.219 124.081 136.78 125.323 131.537 125.323C126.871 125.323 122.765 124.263 119.219 122.141C115.674 120.02 112.901 117.005 110.901 113.096C108.931 109.187 107.931 104.505 107.901 99.0504V54.5959H127.265V95.5959C127.295 99.7171 128.401 102.975 130.583 105.369C132.765 107.763 135.689 108.96 139.356 108.96C141.689 108.96 143.871 108.429 145.901 107.369C147.931 106.278 149.568 104.672 150.81 102.55C152.083 100.429 152.704 97.808 152.674 94.6868ZM187.526 124.414V54.5959H206.89V124.414H187.526ZM197.253 45.5959C194.375 45.5959 191.905 44.6413 189.844 42.7322C187.814 40.7928 186.799 38.4747 186.799 35.7777C186.799 33.111 187.814 30.8232 189.844 28.9141C191.905 26.9747 194.375 26.005 197.253 26.005C200.132 26.005 202.587 26.9747 204.617 28.9141C206.678 30.8232 207.708 33.111 207.708 35.7777C207.708 38.4747 206.678 40.7928 204.617 42.7322C202.587 44.6413 200.132 45.5959 197.253 45.5959ZM253.947 125.778C246.795 125.778 240.644 124.263 235.492 121.232C230.371 118.172 226.431 113.929 223.674 108.505C220.947 103.081 219.583 96.8383 219.583 89.7777C219.583 82.6262 220.962 76.3535 223.719 70.9595C226.507 65.5353 230.462 61.308 235.583 58.2777C240.704 55.2171 246.795 53.6868 253.856 53.6868C259.947 53.6868 265.28 54.7928 269.856 57.005C274.431 59.2171 278.053 62.3232 280.719 66.3232C283.386 70.3232 284.856 75.0201 285.128 80.4141H266.856C266.34 76.9292 264.977 74.1262 262.765 72.005C260.583 69.8535 257.719 68.7777 254.174 68.7777C251.174 68.7777 248.553 69.5959 246.31 71.2322C244.098 72.8383 242.371 75.1868 241.128 78.2777C239.886 81.3686 239.265 85.111 239.265 89.505C239.265 93.9595 239.871 97.7474 241.083 100.869C242.325 103.99 244.068 106.369 246.31 108.005C248.553 109.641 251.174 110.46 254.174 110.46C256.386 110.46 258.371 110.005 260.128 109.096C261.916 108.187 263.386 106.869 264.537 105.141C265.719 103.384 266.492 101.278 266.856 98.8232H285.128C284.825 104.156 283.371 108.853 280.765 112.914C278.189 116.944 274.628 120.096 270.083 122.369C265.537 124.641 260.159 125.778 253.947 125.778ZM315.072 104.323L315.117 81.0959H317.935L340.299 54.5959H362.526L332.481 89.6868H327.89L315.072 104.323ZM297.526 124.414V31.3232H316.89V124.414H297.526ZM341.162 124.414L320.617 94.005L333.526 80.3232L363.844 124.414H341.162ZM402.015 124.414V31.3232H421.697V108.187H461.606V124.414H402.015ZM474.276 124.414V54.5959H493.64V124.414H474.276ZM484.003 45.5959C481.125 45.5959 478.655 44.6413 476.594 42.7322C474.564 40.7928 473.549 38.4747 473.549 35.7777C473.549 33.111 474.564 30.8232 476.594 28.9141C478.655 26.9747 481.125 26.005 484.003 26.005C486.882 26.005 489.337 26.9747 491.367 28.9141C493.428 30.8232 494.458 33.111 494.458 35.7777C494.458 38.4747 493.428 40.7928 491.367 42.7322C489.337 44.6413 486.882 45.5959 484.003 45.5959ZM528.515 84.0504V124.414H509.151V54.5959H527.606V66.9141H528.424C529.969 62.8535 532.56 59.6413 536.197 57.2777C539.833 54.8838 544.242 53.6868 549.424 53.6868C554.272 53.6868 558.5 54.7474 562.106 56.8686C565.712 58.9898 568.515 62.0201 570.515 65.9595C572.515 69.8686 573.515 74.5353 573.515 79.9595V124.414H554.151V83.4141C554.181 79.1413 553.09 75.808 550.878 73.4141C548.666 70.9898 545.621 69.7777 541.742 69.7777C539.136 69.7777 536.833 70.3383 534.833 71.4595C532.863 72.5807 531.318 74.2171 530.197 76.3686C529.106 78.4898 528.545 81.0504 528.515 84.0504ZM606.322 104.323L606.367 81.0959H609.185L631.549 54.5959H653.776L623.731 89.6868H619.14L606.322 104.323ZM588.776 124.414V31.3232H608.14V124.414H588.776ZM632.412 124.414L611.867 94.005L624.776 80.3232L655.094 124.414H632.412ZM721.367 74.505L703.64 75.5959C703.337 74.0807 702.685 72.7171 701.685 71.505C700.685 70.2625 699.367 69.2777 697.731 68.5504C696.125 67.7928 694.2 67.4141 691.958 67.4141C688.958 67.4141 686.428 68.0504 684.367 69.3232C682.306 70.5656 681.276 72.2322 681.276 74.3232C681.276 75.9898 681.943 77.3989 683.276 78.5504C684.609 79.7019 686.897 80.6262 690.14 81.3232L702.776 83.8686C709.564 85.2625 714.625 87.505 717.958 90.5959C721.291 93.6868 722.958 97.7474 722.958 102.778C722.958 107.353 721.609 111.369 718.912 114.823C716.246 118.278 712.579 120.975 707.912 122.914C703.276 124.823 697.928 125.778 691.867 125.778C682.625 125.778 675.261 123.853 669.776 120.005C664.322 116.126 661.125 110.853 660.185 104.187L679.231 103.187C679.806 106.005 681.2 108.156 683.412 109.641C685.625 111.096 688.458 111.823 691.912 111.823C695.306 111.823 698.034 111.172 700.094 109.869C702.185 108.535 703.246 106.823 703.276 104.732C703.246 102.975 702.503 101.535 701.049 100.414C699.594 99.2625 697.352 98.3838 694.322 97.7777L682.231 95.3686C675.412 94.005 670.337 91.6413 667.003 88.2777C663.7 84.9141 662.049 80.6262 662.049 75.4141C662.049 70.9292 663.261 67.0656 665.685 63.8232C668.14 60.5807 671.579 58.0807 676.003 56.3232C680.458 54.5656 685.67 53.6868 691.64 53.6868C700.458 53.6868 707.397 55.5504 712.458 59.2777C717.549 63.005 720.519 68.0807 721.367 74.505Z" fill="white"/>
</svg>
