<svg width="1105" height="350" viewBox="0 0 1105 350" fill="none" xmlns="http://www.w3.org/2000/svg">
<ellipse cx="61.3053" cy="304.837" rx="60.4694" ry="44.2337" fill="#1DC9D3"/>
<line x1="222.387" y1="316.912" x2="557.763" y2="316.912" stroke="#1DC9D3" stroke-width="25"/>
<path d="M104.636 78.1167C104.636 88.2682 102.712 96.9045 98.8636 104.026C95.0455 111.147 89.8333 116.586 83.2273 120.344C76.6515 124.071 69.2576 125.935 61.0455 125.935C52.7727 125.935 45.3485 124.056 38.7727 120.298C32.197 116.541 27 111.102 23.1818 103.98C19.3636 96.8591 17.4545 88.2379 17.4545 78.1167C17.4545 67.9651 19.3636 59.3288 23.1818 52.2076C27 45.0863 32.197 39.6621 38.7727 35.9348C45.3485 32.1773 52.7727 30.2985 61.0455 30.2985C69.2576 30.2985 76.6515 32.1773 83.2273 35.9348C89.8333 39.6621 95.0455 45.0863 98.8636 52.2076C102.712 59.3288 104.636 67.9651 104.636 78.1167ZM84.6818 78.1167C84.6818 71.5409 83.697 65.9954 81.7273 61.4803C79.7879 56.9651 77.0455 53.5409 73.5 51.2076C69.9545 48.8742 65.803 47.7076 61.0455 47.7076C56.2879 47.7076 52.1364 48.8742 48.5909 51.2076C45.0455 53.5409 42.2879 56.9651 40.3182 61.4803C38.3788 65.9954 37.4091 71.5409 37.4091 78.1167C37.4091 84.6924 38.3788 90.2379 40.3182 94.753C42.2879 99.2682 45.0455 102.692 48.5909 105.026C52.1364 107.359 56.2879 108.526 61.0455 108.526C65.803 108.526 69.9545 107.359 73.5 105.026C77.0455 102.692 79.7879 99.2682 81.7273 94.753C83.697 90.2379 84.6818 84.6924 84.6818 78.1167ZM163.625 94.9348V54.8439H182.989V124.662H164.398V111.98H163.67C162.095 116.071 159.473 119.359 155.807 121.844C152.17 124.329 147.731 125.571 142.489 125.571C137.822 125.571 133.716 124.511 130.17 122.389C126.625 120.268 123.852 117.253 121.852 113.344C119.883 109.435 118.883 104.753 118.852 99.2985V54.8439H138.216V95.8439C138.246 99.9651 139.352 103.223 141.534 105.617C143.716 108.011 146.64 109.208 150.307 109.208C152.64 109.208 154.822 108.677 156.852 107.617C158.883 106.526 160.519 104.92 161.761 102.798C163.034 100.677 163.655 98.056 163.625 94.9348ZM198.477 124.662V54.8439H217.25V67.0257H217.977C219.25 62.6924 221.386 59.4197 224.386 57.2076C227.386 54.9651 230.841 53.8439 234.75 53.8439C235.72 53.8439 236.765 53.9045 237.886 54.0257C239.008 54.147 239.992 54.3136 240.841 54.5257V71.7076C239.932 71.4348 238.674 71.1924 237.068 70.9803C235.462 70.7682 233.992 70.6621 232.659 70.6621C229.811 70.6621 227.265 71.2833 225.023 72.5257C222.811 73.7379 221.053 75.4348 219.75 77.6167C218.477 79.7985 217.841 82.3136 217.841 85.1621V124.662H198.477ZM342.568 61.6621C341.932 59.45 341.038 57.4954 339.886 55.7985C338.735 54.0712 337.326 52.6167 335.659 51.4348C334.023 50.2227 332.144 49.2985 330.023 48.6621C327.932 48.0257 325.614 47.7076 323.068 47.7076C318.311 47.7076 314.129 48.8894 310.523 51.253C306.947 53.6167 304.159 57.056 302.159 61.5712C300.159 66.056 299.159 71.5409 299.159 78.0257C299.159 84.5106 300.144 90.0257 302.114 94.5712C304.083 99.1167 306.871 102.586 310.477 104.98C314.083 107.344 318.341 108.526 323.25 108.526C327.705 108.526 331.508 107.738 334.659 106.162C337.841 104.556 340.265 102.298 341.932 99.3894C343.629 96.4803 344.477 93.0409 344.477 89.0712L348.477 89.6621H324.477V74.8439H363.432V86.5712C363.432 94.753 361.705 101.783 358.25 107.662C354.795 113.511 350.038 118.026 343.977 121.208C337.917 124.359 330.977 125.935 323.159 125.935C314.432 125.935 306.765 124.011 300.159 120.162C293.553 116.283 288.402 110.783 284.705 103.662C281.038 96.5106 279.205 88.0257 279.205 78.2076C279.205 70.6621 280.295 63.9348 282.477 58.0257C284.689 52.0863 287.78 47.056 291.75 42.9348C295.72 38.8136 300.341 35.6773 305.614 33.5257C310.886 31.3742 316.598 30.2985 322.75 30.2985C328.023 30.2985 332.932 31.0712 337.477 32.6167C342.023 34.1318 346.053 36.2833 349.568 39.0712C353.114 41.8591 356.008 45.1773 358.25 49.0257C360.492 52.8439 361.932 57.056 362.568 61.6621H342.568ZM397.761 125.98C393.307 125.98 389.337 125.208 385.852 123.662C382.367 122.086 379.61 119.768 377.58 116.708C375.58 113.617 374.58 109.768 374.58 105.162C374.58 101.283 375.292 98.0257 376.716 95.3894C378.14 92.753 380.08 90.6318 382.534 89.0257C384.989 87.4197 387.777 86.2076 390.898 85.3894C394.049 84.5712 397.352 83.9954 400.807 83.6621C404.867 83.2379 408.14 82.8439 410.625 82.4803C413.11 82.0864 414.913 81.5106 416.034 80.753C417.155 79.9954 417.716 78.8742 417.716 77.3894V77.1167C417.716 74.2379 416.807 72.0106 414.989 70.4348C413.201 68.8591 410.655 68.0712 407.352 68.0712C403.867 68.0712 401.095 68.8439 399.034 70.3894C396.973 71.9045 395.61 73.8136 394.943 76.1167L377.034 74.6621C377.943 70.4197 379.731 66.753 382.398 63.6621C385.064 60.5409 388.504 58.147 392.716 56.4803C396.958 54.7833 401.867 53.9348 407.443 53.9348C411.322 53.9348 415.034 54.3894 418.58 55.2985C422.155 56.2076 425.322 57.6167 428.08 59.5257C430.867 61.4348 433.064 63.8894 434.67 66.8894C436.277 69.8591 437.08 73.4197 437.08 77.5712V124.662H418.716V114.98H418.17C417.049 117.162 415.549 119.086 413.67 120.753C411.792 122.389 409.534 123.677 406.898 124.617C404.261 125.526 401.216 125.98 397.761 125.98ZM403.307 112.617C406.155 112.617 408.67 112.056 410.852 110.935C413.034 109.783 414.746 108.238 415.989 106.298C417.231 104.359 417.852 102.162 417.852 99.7076V92.2985C417.246 92.6924 416.413 93.056 415.352 93.3894C414.322 93.6924 413.155 93.9803 411.852 94.253C410.549 94.4954 409.246 94.7227 407.943 94.9348C406.64 95.1167 405.458 95.2833 404.398 95.4348C402.125 95.7682 400.14 96.2985 398.443 97.0257C396.746 97.753 395.428 98.7379 394.489 99.9803C393.549 101.192 393.08 102.708 393.08 104.526C393.08 107.162 394.034 109.177 395.943 110.571C397.883 111.935 400.337 112.617 403.307 112.617ZM471.466 31.5712V124.662H452.102V31.5712H471.466ZM506.341 31.5712V124.662H486.977V31.5712H506.341ZM553.67 126.026C546.489 126.026 540.307 124.571 535.125 121.662C529.973 118.723 526.004 114.571 523.216 109.208C520.428 103.814 519.034 97.4348 519.034 90.0712C519.034 82.8894 520.428 76.5864 523.216 71.1621C526.004 65.7379 529.928 61.5106 534.989 58.4803C540.08 55.45 546.049 53.9348 552.898 53.9348C557.504 53.9348 561.792 54.6773 565.761 56.1621C569.761 57.6167 573.246 59.8136 576.216 62.753C579.216 65.6924 581.549 69.3894 583.216 73.8439C584.883 78.2682 585.716 83.45 585.716 89.3894V94.7076H526.761V82.7076H567.489C567.489 79.9197 566.883 77.45 565.67 75.2985C564.458 73.147 562.777 71.4651 560.625 70.253C558.504 69.0106 556.034 68.3894 553.216 68.3894C550.277 68.3894 547.67 69.0712 545.398 70.4348C543.155 71.7682 541.398 73.5712 540.125 75.8439C538.852 78.0863 538.201 80.5863 538.17 83.3439V94.753C538.17 98.2076 538.807 101.192 540.08 103.708C541.383 106.223 543.216 108.162 545.58 109.526C547.943 110.889 550.746 111.571 553.989 111.571C556.14 111.571 558.11 111.268 559.898 110.662C561.686 110.056 563.216 109.147 564.489 107.935C565.761 106.723 566.731 105.238 567.398 103.48L585.307 104.662C584.398 108.965 582.534 112.723 579.716 115.935C576.928 119.117 573.322 121.602 568.898 123.389C564.504 125.147 559.428 126.026 553.67 126.026ZM598.352 124.662V54.8439H617.125V67.0257H617.852C619.125 62.6924 621.261 59.4197 624.261 57.2076C627.261 54.9651 630.716 53.8439 634.625 53.8439C635.595 53.8439 636.64 53.9045 637.761 54.0257C638.883 54.147 639.867 54.3136 640.716 54.5257V71.7076C639.807 71.4348 638.549 71.1924 636.943 70.9803C635.337 70.7682 633.867 70.6621 632.534 70.6621C629.686 70.6621 627.14 71.2833 624.898 72.5257C622.686 73.7379 620.928 75.4348 619.625 77.6167C618.352 79.7985 617.716 82.3136 617.716 85.1621V124.662H598.352ZM664.807 150.844C662.352 150.844 660.049 150.647 657.898 150.253C655.777 149.889 654.019 149.42 652.625 148.844L656.989 134.389C659.261 135.086 661.307 135.465 663.125 135.526C664.973 135.586 666.564 135.162 667.898 134.253C669.261 133.344 670.367 131.798 671.216 129.617L672.352 126.662L647.307 54.8439H667.67L682.125 106.117H682.852L697.443 54.8439H717.943L690.807 132.208C689.504 135.965 687.731 139.238 685.489 142.026C683.277 144.844 680.473 147.011 677.08 148.526C673.686 150.071 669.595 150.844 664.807 150.844Z" fill="white"/>
</svg>
